<svg xmlns="http://www.w3.org/2000/svg" width="485.236" height="465.076" viewBox="0 0 485.236 465.076">
  <g id="Group_528" data-name="Group 528" transform="translate(-3.398 72.534) rotate(-14)">
    <g id="Group_531" data-name="Group 531">
      <path id="Path_275" data-name="Path 275" d="M290.768,52.382c33.363,18.709,60.737,47.368,76.453,83.723,38.407,88.854-7.381,190.039-102.273,226S62,355.2,23.59,266.344s7.381-190.04,102.271-226a196.2,196.2,0,0,1,31.293-8.973" transform="translate(4.595 11.5)" fill="none" stroke="#bfbfbf" stroke-width="35"/>
      <path id="Path_276" data-name="Path 276" d="M115.058,43.784C102.534,34.52,94.591,14.351,92.348,0c17.788,17.645,39.873,32.312,65.219,39.113C134.541,50.822,117.689,70.8,103.786,91.3c-.612-15.565,1.065-34.722,11.272-47.517" transform="translate(42.434 0)" fill="#bfbfbf"/>
    </g>
  </g>
</svg>
