<svg xmlns="http://www.w3.org/2000/svg" width="1067" height="568" viewBox="0 0 1067 568">
  <g id="Group_473" data-name="Group 473" transform="translate(-182 -1279.5)">
    <g id="Group_294" data-name="Group 294" transform="translate(-19671 -789)">
      <g id="Group_146" data-name="Group 146" transform="translate(19703 558)">
        <g id="Rectangle_191" data-name="Rectangle 191" transform="translate(150 1511)" fill="#658d1b" stroke="#fff" stroke-width="1">
          <rect width="280.495" height="40" stroke="none"/>
          <rect x="0.5" y="0.5" width="279.495" height="39" fill="none"/>
        </g>
        <text id="Recognition" transform="translate(226 1540)" fill="#fff" font-size="24" font-family="HelveticaNeue, Helvetica Neue"><tspan x="0" y="0">Recognition</tspan></text>
      </g>
      <g id="Group_145" data-name="Group 145" transform="translate(19703 558)">
        <g id="Rectangle_192" data-name="Rectangle 192" transform="translate(150 1558)" fill="#658d1b" stroke="#fff" stroke-width="1">
          <rect width="280.495" height="40" stroke="none"/>
          <rect x="0.5" y="0.5" width="279.495" height="39" fill="none"/>
        </g>
        <text id="Contests_spiffs" data-name="Contests/spiffs" transform="translate(209 1587)" fill="#fff" font-size="24" font-family="HelveticaNeue, Helvetica Neue"><tspan x="0" y="0">Contests/spiffs</tspan></text>
      </g>
      <g id="Group_144" data-name="Group 144" transform="translate(19703 558)">
        <g id="Rectangle_193" data-name="Rectangle 193" transform="translate(150 1605)" fill="#004764" stroke="#fff" stroke-width="1">
          <rect width="280.495" height="100" stroke="none"/>
          <rect x="0.5" y="0.5" width="279.495" height="99" fill="none"/>
        </g>
        <text id="Over_Target_Incentive_Pay" data-name="Over Target
Incentive Pay" transform="translate(218 1649)" fill="#fff" font-size="24" font-family="HelveticaNeue, Helvetica Neue"><tspan x="0" y="0">Over Target</tspan><tspan x="0" y="29">Incentive Pay</tspan></text>
      </g>
      <g id="Group_143" data-name="Group 143" transform="translate(19703 558)">
        <g id="Rectangle_194" data-name="Rectangle 194" transform="translate(150 1712)" fill="#004764" stroke="#fff" stroke-width="1">
          <rect width="280.495" height="56" stroke="none"/>
          <rect x="0.5" y="0.5" width="279.495" height="55" fill="none"/>
        </g>
        <text id="Target_Incentive_Pay" data-name="Target Incentive Pay" transform="translate(181 1749)" fill="#fff" font-size="24" font-family="HelveticaNeue, Helvetica Neue"><tspan x="0" y="0">Target Incentive Pay</tspan></text>
      </g>
      <g id="Group_142" data-name="Group 142" transform="translate(19703 558)">
        <g id="Rectangle_195" data-name="Rectangle 195" transform="translate(150 1774)" fill="#004764" stroke="#fff" stroke-width="1">
          <rect width="280.495" height="102" stroke="none"/>
          <rect x="0.5" y="0.5" width="279.495" height="101" fill="none"/>
        </g>
        <text id="Salary" transform="translate(257 1834)" fill="#fff" font-size="24" font-family="HelveticaNeue, Helvetica Neue"><tspan x="0" y="0">Salary</tspan></text>
      </g>
      <g id="Group_140" data-name="Group 140" transform="translate(19703 558)">
        <g id="Rectangle_197" data-name="Rectangle 197" transform="translate(150 2032)" fill="#bfbfbf" stroke="#fff" stroke-width="1">
          <rect width="280.495" height="46" stroke="none"/>
          <rect x="0.5" y="0.5" width="279.495" height="45" fill="none"/>
        </g>
        <text id="Sales_Expenses" data-name="Sales Expenses" transform="translate(205 2064)" fill="#fff" font-size="24" font-family="HelveticaNeue, Helvetica Neue"><tspan x="0" y="0">Sales Expenses</tspan></text>
      </g>
      <g id="Group_141" data-name="Group 141" transform="translate(19703 558)">
        <g id="Rectangle_196" data-name="Rectangle 196" transform="translate(150 1883)" fill="#bfbfbf" stroke="#fff" stroke-width="1">
          <rect width="280.495" height="142" stroke="none"/>
          <rect x="0.5" y="0.5" width="279.495" height="141" fill="none"/>
        </g>
        <text id="Benefits" transform="translate(246 1963)" fill="#fff" font-size="24" font-family="HelveticaNeue, Helvetica Neue"><tspan x="0" y="0">Benefits</tspan></text>
      </g>
      <text id="Intrinsic_Rewards" data-name="Intrinsic Rewards" transform="translate(20188 2098)" font-size="20" font-family="HelveticaNeue, Helvetica Neue"><tspan x="0" y="0">Intrinsic Rewards</tspan></text>
      <text id="Focused_Efforts" data-name="Focused Efforts" transform="translate(20195 2145)" font-size="20" font-family="HelveticaNeue, Helvetica Neue"><tspan x="0" y="0">Focused Efforts</tspan></text>
      <text id="Outstanding_Pay" data-name="Outstanding Pay" transform="translate(20197 2199)" font-size="20" font-family="HelveticaNeue, Helvetica Neue"><tspan x="0" y="19">Outstanding Pay</tspan></text>
      <text id="At-Risk_Pay" data-name="At-Risk Pay" transform="translate(20223 2307)" font-size="20" font-family="HelveticaNeue, Helvetica Neue"><tspan x="0" y="0">At-Risk Pay</tspan></text>
      <text id="Retention_Non-Sales_Pay" data-name="Retention/
Non-Sales Pay" transform="translate(20227 2378)" font-size="20" font-family="HelveticaNeue, Helvetica Neue"><tspan x="0" y="0">Retention/</tspan><tspan x="0" y="24">Non-Sales Pay</tspan></text>
      <text id="Security_Needs" data-name="Security Needs" transform="translate(20209 2494)" font-size="20" font-family="HelveticaNeue, Helvetica Neue"><tspan x="0" y="19">Security Needs</tspan></text>
      <text id="Reimbursement" transform="translate(20205 2622)" font-size="20" font-family="HelveticaNeue, Helvetica Neue"><tspan x="0" y="0">Reimbursement</tspan></text>
      <text id="Special_Compensation" data-name="Special
Compensation" transform="translate(20440 2089)" font-size="20" font-family="HelveticaNeue, Helvetica Neue"><tspan x="47" y="19">Special</tspan><tspan x="14" y="43">Compensation</tspan></text>
      <text id="Sales_Compensation" data-name="Sales
Compensation" transform="translate(20437 2213)" font-size="20" font-family="HelveticaNeue, Helvetica Neue"><tspan x="56" y="19">Sales</tspan><tspan x="15" y="43">Compensation</tspan></text>
      <g id="Group_283" data-name="Group 283" transform="translate(19438.5 326)">
        <path id="Path_188" data-name="Path 188" d="M706.5,1743H834.824v8.235" fill="none" stroke="#000" stroke-width="1"/>
        <path id="Path_189" data-name="Path 189" d="M706.5,1751.235H834.824V1743" transform="translate(0 36.661)" fill="none" stroke="#000" stroke-width="1"/>
      </g>
      <g id="Group_284" data-name="Group 284" transform="translate(19438.5 370.896)">
        <path id="Path_188-2" data-name="Path 188" d="M706.5,1743H834.824v8.235" fill="none" stroke="#000" stroke-width="1"/>
        <path id="Path_189-2" data-name="Path 189" d="M706.5,1751.235H834.824V1743" transform="translate(0 39.089)" fill="none" stroke="#000" stroke-width="1"/>
      </g>
      <g id="Group_285" data-name="Group 285" transform="translate(19438.5 418.22)">
        <path id="Path_188-3" data-name="Path 188" d="M706.5,1743H834.824v24.8" fill="none" stroke="#000" stroke-width="1"/>
        <path id="Path_190" data-name="Path 190" d="M706.5,1766.8l85.349,1h42.975V1743" transform="translate(0 78.813)" fill="none" stroke="#000" stroke-width="1"/>
      </g>
      <g id="Group_290" data-name="Group 290" transform="translate(19619.5 326)">
        <path id="Path_188-4" data-name="Path 188" d="M706.5,1743H900.133v24.8" transform="translate(0)" fill="none" stroke="#000" stroke-width="1"/>
        <path id="Path_190-2" data-name="Path 190" d="M706.5,1767.8H900.133V1743" transform="translate(0 78.813)" fill="none" stroke="#000" stroke-width="1"/>
      </g>
      <g id="Group_292" data-name="Group 292" transform="translate(19834.5 326)">
        <path id="Path_188-5" data-name="Path 188" d="M706.5,1743H900.133v55.234" transform="translate(0)" fill="none" stroke="#000" stroke-width="1"/>
        <path id="Path_190-3" data-name="Path 190" d="M706.5,1883.151l128.865,2.292h64.768V1743" transform="translate(0 132.813)" fill="none" stroke="#000" stroke-width="1"/>
      </g>
      <g id="Group_291" data-name="Group 291" transform="translate(19619.5 430.195)">
        <path id="Path_188-6" data-name="Path 188" d="M706.5,1743H900.133v39.81" transform="translate(0)" fill="none" stroke="#000" stroke-width="1"/>
        <path id="Path_190-4" data-name="Path 190" d="M706.5,1794.813H900.133V1743" transform="translate(0 106.992)" fill="none" stroke="#000" stroke-width="1"/>
      </g>
      <g id="Group_293" data-name="Group 293" transform="translate(19619.5 589)">
        <path id="Path_188-7" data-name="Path 188" d="M706.5,1743H900.133v73.757" transform="translate(0)" fill="none" stroke="#000" stroke-width="1"/>
        <path id="Path_190-5" data-name="Path 190" d="M706.5,1830.124H900.133V1743" transform="translate(0 166.884)" fill="none" stroke="#000" stroke-width="1"/>
      </g>
      <g id="Group_286" data-name="Group 286" transform="translate(19438.5 521.829)">
        <path id="Path_188-8" data-name="Path 188" d="M706.5,1742l85.349,1h42.975v18.707" fill="none" stroke="#000" stroke-width="1"/>
        <path id="Path_190-6" data-name="Path 190" d="M706.5,1759.429H834.824V1743" transform="translate(0 50.742)" fill="none" stroke="#000" stroke-width="1"/>
      </g>
      <g id="Group_287" data-name="Group 287" transform="translate(19438.5 589)">
        <path id="Path_188-9" data-name="Path 188" d="M706.5,1743H834.824v24.8" fill="none" stroke="#000" stroke-width="1"/>
        <path id="Path_190-7" data-name="Path 190" d="M706.5,1767.8H834.824V1743" transform="translate(0 80.374)" fill="none" stroke="#000" stroke-width="1"/>
      </g>
      <g id="Group_288" data-name="Group 288" transform="translate(19438.5 694.171)">
        <path id="Path_188-10" data-name="Path 188" d="M706.5,1743H834.824v43.576" fill="none" stroke="#000" stroke-width="1"/>
        <path id="Path_190-8" data-name="Path 190" d="M706.5,1788.278H834.824V1743" transform="translate(0 103.56)" fill="none" stroke="#000" stroke-width="1"/>
      </g>
      <g id="Group_289" data-name="Group 289" transform="translate(19438.5 843.008)">
        <path id="Path_188-11" data-name="Path 188" d="M706.5,1743H834.824v17.027" fill="none" stroke="#000" stroke-width="1"/>
        <path id="Path_190-9" data-name="Path 190" d="M706.5,1753.563H834.824V1743" transform="translate(0 39.428)" fill="none" stroke="#000" stroke-width="1"/>
      </g>
      <text id="Fixed_Compensation" data-name="Fixed
Compensation" transform="translate(20520 2441)" font-size="20" font-family="HelveticaNeue, Helvetica Neue"><tspan x="-24" y="0">Fixed</tspan><tspan x="-65" y="24">Compensation</tspan></text>
      <path id="Path_191" data-name="Path 191" d="M0,0,10.515.063,672.957,4" transform="translate(20136.5 2263.5)" stroke="#000" stroke-width="1"/>
      <text id="Performance_Based_Compensation" data-name="Performance Based
Compensation" transform="translate(20735 2159)" font-size="20" font-family="HelveticaNeue, Helvetica Neue"><tspan x="-88" y="0">Performance Based</tspan><tspan x="-65" y="24">Compensation</tspan></text>
      <text id="Total_Target_Compensation" data-name="Total
Target
Compensation" transform="translate(20854 2248)" font-size="20" font-family="HelveticaNeue, Helvetica Neue"><tspan x="-22" y="0">Total</tspan><tspan x="-28" y="24">Target</tspan><tspan x="-65" y="48">Compensation</tspan></text>
    </g>
  </g>
</svg>
