<svg xmlns="http://www.w3.org/2000/svg" width="80px" height="80px" viewBox="0 0 120.554 106.036">
  <g id="Group_89" data-name="Group 89" transform="translate(2.243 1.208)">
    <path id="Path_193" data-name="Path 193" d="M33.853,40.583V22.264h15.6V44.426" transform="translate(8.563 6.862)" fill="none" stroke="#007582" stroke-linecap="round" stroke-linejoin="round" stroke-width="5"/>
    <path id="Path_194" data-name="Path 194" d="M46.047,47.355V11.778h15.6V47.355" transform="translate(11.769 2.929)" fill="none" stroke="#007582" stroke-linecap="round" stroke-linejoin="round" stroke-width="5"/>
    <g id="Group_126" data-name="Group 126" transform="translate(1.292 1.292)">
      <g id="Group_128" data-name="Group 128">
        <path id="Path_195" data-name="Path 195" d="M58.34,51.92l-.1-50.628h15.6l.007,47.931" transform="translate(13.684 -1.292)" fill="none" stroke="#007582" stroke-linecap="round" stroke-linejoin="round" stroke-width="5"/>
        <path id="Path_198" data-name="Path 198" d="M74.847,48.481s9.632-8.6,16.864-14.169c7.607-5.851,13.516-3.372,18.277,1.508L73.725,70.814H26.717" transform="translate(4.531 8.838)" fill="none" stroke="#007582" stroke-linecap="round" stroke-linejoin="round" stroke-width="5"/>
        <path id="Path_199" data-name="Path 199" d="M14.132,51.719c8.909-11.453,14.54-14.463,23.339-14.463,7.361,0,11.283.889,17.562,5.209H68.507c2.165,0,9.309.986,9.309,11.775H49.453" transform="translate(2.294 10.364)" fill="none" stroke="#007582" stroke-linecap="round" stroke-linejoin="round" stroke-width="5"/>
        <path id="Path_201" data-name="Path 201" d="M1.292,55.459l10.633-10.9L42.111,75.5,31.478,86.4" transform="translate(-1.292 13.603)" fill="none" stroke="#007582" stroke-linecap="round" stroke-linejoin="round" stroke-width="5"/>
        <path id="Path_202" data-name="Path 202" d="M9.413,55.962a2.9,2.9,0,0,0,0,4.023,2.726,2.726,0,0,0,3.925,0,2.9,2.9,0,0,0,0-4.023,2.729,2.729,0,0,0-3.925,0" transform="translate(0.75 15.86)" fill="#007582" stroke="#007582" stroke-width="5"/>
      </g>
    </g>
  </g>
</svg>
