<svg xmlns="http://www.w3.org/2000/svg" width="27" height="400" opacity="0.4" viewBox="0 0 27 459">
  <g id="Group_13" data-name="Group 13" transform="translate(-656 -1370)">
    <g id="Group_11" data-name="Group 11">
      <circle id="Ellipse_11" data-name="Ellipse 11" cx="13.5" cy="13.5" r="13.5" transform="translate(656 1586)" fill="#007681"/>
      <circle id="Ellipse_11-2" data-name="Ellipse 11" cx="12.5" cy="12.5" r="12.5" transform="translate(657 1633)" fill="#007681"/>
      <circle id="Ellipse_11-3" data-name="Ellipse 11" cx="10" cy="10" r="10" transform="translate(660 1680)" fill="#007681"/>
      <circle id="Ellipse_11-4" data-name="Ellipse 11" cx="8.5" cy="8.5" r="8.5" transform="translate(661 1727)" fill="#007681"/>
      <circle id="Ellipse_11-5" data-name="Ellipse 11" cx="6" cy="6" r="6" transform="translate(664 1774)" fill="#007681"/>
      <circle id="Ellipse_11-6" data-name="Ellipse 11" cx="4" cy="4" r="4" transform="translate(666 1821)" fill="#007681"/>
    </g>
    <g id="Group_12" data-name="Group 12" transform="translate(656 1370)">
      <circle id="Ellipse_11-7" data-name="Ellipse 11" cx="13.5" cy="13.5" r="13.5" transform="translate(0 216)" fill="#007681"/>
      <circle id="Ellipse_11-8" data-name="Ellipse 11" cx="12.5" cy="12.5" r="12.5" transform="translate(1 171)" fill="#007681"/>
      <circle id="Ellipse_11-9" data-name="Ellipse 11" cx="10" cy="10" r="10" transform="translate(4 129)" fill="#007681"/>
      <circle id="Ellipse_11-10" data-name="Ellipse 11" cx="8.5" cy="8.5" r="8.5" transform="translate(5 85)" fill="#007681"/>
      <circle id="Ellipse_11-11" data-name="Ellipse 11" cx="6" cy="6" r="6" transform="translate(8 43)" fill="#007681"/>
      <circle id="Ellipse_11-12" data-name="Ellipse 11" cx="4" cy="4" r="4" transform="translate(10)" fill="#007681"/>
    </g>
  </g>
</svg>
