<svg xmlns="http://www.w3.org/2000/svg" width="80px" height="80px"  viewBox="0 0 91.432 105.102">
  <g id="Group_136" data-name="Group 136" transform="translate(-490.367 -4767.455)">
    <g id="Group_132" data-name="Group 132" transform="translate(500.131 4769.955)">
      <path id="Union_5" data-name="Union 5" d="M9.379,78.2a3.762,3.762,0,0,1-2.186-4.851L21.224,24.737H13.558L7.039,36.258a3.763,3.763,0,0,1-6.551-3.7l7.6-13.43a3.763,3.763,0,0,1,3.275-1.911H28.4a8.521,8.521,0,0,1,6.784,3.364l7.548,9.93,10.047-2.163a3.772,3.772,0,0,1,4.551,3.494,3.917,3.917,0,0,1-3.18,3.909l-12.174,2.62a3.764,3.764,0,0,1-3.787-1.4l-6.2-8.214L26.363,44.944l12.677.783a2.3,2.3,0,0,1,1.469,1.736l4.582,15.659a3.764,3.764,0,0,1-7.11,2.474L33.417,53.7l-10.853-.227L14.23,76.018A3.759,3.759,0,0,1,9.379,78.2Zm11.6-71.62a6.585,6.585,0,1,1,6.585,6.584A6.585,6.585,0,0,1,20.976,6.584Z" transform="translate(0 0)" fill="none" stroke="#005F86" stroke-width="5"/>
    </g>
    <g id="Group_134" data-name="Group 134" transform="translate(492.867 4832.078)">
      <g id="Group_135" data-name="Group 135" transform="translate(0 0)">
        <path id="Path_217" data-name="Path 217" d="M24.016,259.518H34.977l-.184-12.757,25.336.146-.184-12.758,25.337.146L85.1,221.538l25.336.145M60.13,242.6v16.918m25.152-29.206v29.206m25.152-37.834v37.834" transform="translate(-24.016 -221.538)" fill="none" stroke="#005F86" stroke-linecap="round" stroke-linejoin="round" stroke-width="5"/>
      </g>
    </g>
  </g>
</svg>
