<svg xmlns="http://www.w3.org/2000/svg" width="80px" height="80px" viewBox="0 0 105.098 113.56">
  <g id="Group_67" data-name="Group 67" transform="translate(-5.428 -5.434)">
    <line id="Line_43" data-name="Line 43" x2="11.86" transform="translate(80.331 101.761)" fill="none" stroke="#279989" stroke-linecap="round" stroke-linejoin="round" stroke-width="5"/>
    <g id="Group_87" data-name="Group 87" transform="translate(7.932 7.934)">
      <g id="Group_88" data-name="Group 88">
        <path id="Path_150" data-name="Path 150" d="M83.287,89.63,85.108,63.1a10.8,10.8,0,0,0-8.875-11.164L53.861,48.354,43.385,82.307l-4.036-20.92a8.05,8.05,0,0,1,.486-4.65l3.645-8.656" transform="translate(14.96 18.765)" fill="none" stroke="#279989" stroke-linecap="round" stroke-linejoin="round" stroke-width="5"/>
        <path id="Path_151" data-name="Path 151" d="M42.944,48.08l3.646,8.658a8.045,8.045,0,0,1,.486,4.649l-4.036,20.92L32.563,48.354,10.19,51.937A10.805,10.805,0,0,0,1.315,63.1L3.136,89.63" transform="translate(-1.292 18.765)" fill="none" stroke="#279989" stroke-linecap="round" stroke-linejoin="round" stroke-width="5"/>
        <path id="Path_152" data-name="Path 152" d="M26.147,42.359a6.629,6.629,0,0,1-.773.043,6.949,6.949,0,0,1-6.856-6.079,58.35,58.35,0,0,1-.5-7.661H18c0-15.117,11.719-27.37,26.175-27.37s26.176,12.254,26.176,27.37a58.371,58.371,0,0,1-.5,7.662A6.951,6.951,0,0,1,63,42.4c-.138,0-.274,0-.478-.017" transform="translate(5.87 -1.292)" fill="none" stroke="#279989" stroke-linecap="round" stroke-linejoin="round" stroke-width="5"/>
        <line id="Line_44" data-name="Line 44" x1="7.765" y2="11.752" transform="translate(31.272 55.366)" fill="none" stroke="#279989" stroke-linecap="round" stroke-linejoin="round" stroke-width="5"/>
        <line id="Line_45" data-name="Line 45" x2="7.765" y2="11.752" transform="translate(61.054 55.366)" fill="none" stroke="#279989" stroke-linecap="round" stroke-linejoin="round" stroke-width="5"/>
        <path id="Path_154" data-name="Path 154" d="M22.128,21.81a6.3,6.3,0,0,0,3.72,11.945C28.707,45.373,35.733,53.6,43.967,53.6s15.26-8.229,18.118-19.846a6.423,6.423,0,0,0,1.014.1,6.322,6.322,0,0,0,.366-12.635" transform="translate(6.078 7.252)" fill="none" stroke="#279989" stroke-linecap="round" stroke-linejoin="round" stroke-width="5"/>
        <path id="Path_155" data-name="Path 155" d="M59.123,24.935a29.045,29.045,0,0,1-7.479.969c-10.524,0-19.5-5.526-23.029-13.3" transform="translate(10.421 3.557)" fill="none" stroke="#279989" stroke-linecap="round" stroke-linejoin="round" stroke-width="5"/>
      </g>
    </g>
  </g>
</svg>
