<svg xmlns="http://www.w3.org/2000/svg" width="80px" height="80px" viewBox="0 0 115.391 106.036">
  <g id="Group_129" data-name="Group 129" transform="translate(2.244 2.208)">
    <g id="Group_131" data-name="Group 131" transform="translate(1.292 0.292)">
      <path id="Path_204" data-name="Path 204" d="M28.612,50.841c-3.483-2.6.775-11.958,5.459-17.054l21.78-23.7,21.78,23.7c4.124,4.487,5.3,15.4.925,18.431" transform="translate(9.994 1.73)" fill="none" stroke="#658D1B" stroke-linecap="round" stroke-linejoin="round" stroke-width="5"/>
      <path id="Path_206" data-name="Path 206" d="M53.973,11.239,43.868,1.292h20.21Z" transform="translate(12.101 -1.292)" fill="none" stroke="#658D1B" stroke-linecap="round" stroke-linejoin="round" stroke-width="5"/>
      <path id="Path_208" data-name="Path 208" d="M59.2,26.974c-1.932-5.15-10.646-4.538-10.711.826-.028,2.4,2.784,3.5,5.136,3.875,8.57,1.353,6.2,9.413,0,9.106-4.706-.232-6.065-3.415-6.21-4.175" transform="translate(12.794 4.629)" fill="none" stroke="#658D1B" stroke-linecap="round" stroke-linejoin="round" stroke-width="5"/>
      <path id="Path_216" data-name="Path 216" d="M0,4.322" transform="translate(63.22 23.394)" fill="#fff" stroke="#658D1B" stroke-width="5"/>
      <line id="Line_71" data-name="Line 71" y2="4.322" transform="translate(66.477 22.992)" fill="none" stroke="#658D1B" stroke-linecap="round" stroke-linejoin="round" stroke-width="5"/>
      <line id="Line_73" data-name="Line 73" y2="4.322" transform="translate(66.477 46.524)" fill="none" stroke="#658D1B" stroke-linecap="round" stroke-linejoin="round" stroke-width="5"/>
      <path id="Path_209" data-name="Path 209" d="M27.788,67.65" transform="translate(4.613 15.819)" fill="none" stroke="#658D1B" stroke-linecap="round" stroke-linejoin="round" stroke-width="5"/>
      <path id="Path_211" data-name="Path 211" d="M67.494,52.243S76.78,45.223,83.1,40.48c6.644-4.987,11.805-2.874,15.964,1.285L67.386,71.592l-40.334.251" transform="translate(10.294 9.764)" fill="none" stroke="#658D1B" stroke-linecap="round" stroke-linejoin="round" stroke-width="5"/>
      <path id="Path_212" data-name="Path 212" d="M13.706,55.972C21.488,46.21,26.714,43.7,34.4,43.7c6.43,0,9.855.759,15.34,4.442H61.51c1.89,0,8.131.84,8.131,10.035H44.866" transform="translate(0.335 9.869)" fill="none" stroke="#658D1B" stroke-linecap="round" stroke-linejoin="round" stroke-width="5"/>
      <path id="Path_214" data-name="Path 214" d="M1.292,60.029l9.287-9.287L36.948,77.11,27.659,86.4" transform="translate(-1.292 13.603)" fill="none" stroke="#658D1B" stroke-linecap="round" stroke-linejoin="round" stroke-width="5"/>
      <path id="Path_215" data-name="Path 215" d="M9.222,61.637a2.425,2.425,0,1,0,3.429,0,2.425,2.425,0,0,0-3.429,0" transform="translate(-0.345 13.285)" fill="#fff" stroke="#658D1B" stroke-width="5"/>
    </g>
  </g>
</svg>
