<svg xmlns="http://www.w3.org/2000/svg" width="958.075" height="569" viewBox="0 0 958.075 569">
  <g id="Group_530" data-name="Group 530" transform="translate(-185 -7833)">
    <g id="Group_525" data-name="Group 525" transform="translate(35 6554)">
      <g id="Group_524" data-name="Group 524">
        <rect id="Rectangle_191" data-name="Rectangle 191" width="280.495" height="40" transform="translate(150 1280)" fill="#658d1b"/>
        <rect id="Rectangle_192" data-name="Rectangle 192" width="280.495" height="40" transform="translate(150 1327)" fill="#658d1b"/>
        <rect id="Rectangle_193" data-name="Rectangle 193" width="280.495" height="100" transform="translate(150 1374)" fill="#004764"/>
        <rect id="Rectangle_194" data-name="Rectangle 194" width="280.495" height="56" transform="translate(150 1481)" fill="#004764"/>
        <rect id="Rectangle_195" data-name="Rectangle 195" width="280.495" height="102" transform="translate(150 1543)" fill="#004764"/>
        <rect id="Rectangle_197" data-name="Rectangle 197" width="280.495" height="46" transform="translate(150 1801)" fill="#bfbfbf"/>
        <rect id="Rectangle_196" data-name="Rectangle 196" width="280.495" height="142" transform="translate(150 1652)" fill="#bfbfbf"/>
      </g>
      <g id="Group_523" data-name="Group 523">
        <g id="Group_522" data-name="Group 522">
          <g id="Group_284" data-name="Group 284" transform="translate(-264.5 -418.104)">
            <path id="Path_188" data-name="Path 188" d="M706.5,1743H834.824v8.235" fill="none" stroke="#7d7d7d" stroke-width="2"/>
            <path id="Path_189" data-name="Path 189" d="M706.5,1751.235H834.824V1743" transform="translate(0 39.089)" fill="none" stroke="#7d7d7d" stroke-width="2"/>
          </g>
          <g id="Group_521" data-name="Group 521">
            <g id="Group_519" data-name="Group 519" transform="translate(-19703 -789)">
              <g id="Group_283" data-name="Group 283" transform="translate(19438.5 326)">
                <path id="Path_188-2" data-name="Path 188" d="M706.5,1743H834.824v8.235" fill="none" stroke="#7d7d7d" stroke-width="2"/>
                <path id="Path_189-2" data-name="Path 189" d="M706.5,1751.235H834.824V1743" transform="translate(0 36.661)" fill="none" stroke="#7d7d7d" stroke-width="2"/>
              </g>
              <g id="Group_285" data-name="Group 285" transform="translate(19438.5 418.22)">
                <path id="Path_188-3" data-name="Path 188" d="M706.5,1743H834.824v24.8" fill="none" stroke="#7d7d7d" stroke-width="2"/>
                <path id="Path_190" data-name="Path 190" d="M711.644,1767.8V1743" transform="translate(123.18 78.813)" fill="none" stroke="#7d7d7d" stroke-width="2"/>
              </g>
              <g id="Group_290" data-name="Group 290" transform="translate(19619.5 326)">
                <path id="Path_188-4" data-name="Path 188" d="M706.5,1743H900.133v24.8" transform="translate(0)" fill="none" stroke="#7d7d7d" stroke-width="2"/>
                <path id="Path_190-2" data-name="Path 190" d="M706.5,1767.8H900.133V1743" transform="translate(0 78.813)" fill="none" stroke="#7d7d7d" stroke-width="2"/>
              </g>
              <g id="Group_292" data-name="Group 292" transform="translate(19834.5 326)">
                <path id="Path_188-5" data-name="Path 188" d="M706.5,1743H900.133v55.234" transform="translate(0)" fill="none" stroke="#7d7d7d" stroke-width="2"/>
                <path id="Path_190-3" data-name="Path 190" d="M706.5,1883.151l128.865,2.292h64.768V1743" transform="translate(0 132.813)" fill="none" stroke="#7d7d7d" stroke-width="2"/>
              </g>
              <g id="Group_291" data-name="Group 291" transform="translate(19619.5 430.195)">
                <path id="Path_188-6" data-name="Path 188" d="M706.5,1743H900.133v39.81" transform="translate(0)" fill="none" stroke="#7d7d7d" stroke-width="2"/>
                <path id="Path_190-4" data-name="Path 190" d="M706.5,1794.813H900.133V1743" transform="translate(0 106.992)" fill="none" stroke="#7d7d7d" stroke-width="2"/>
              </g>
              <g id="Group_293" data-name="Group 293" transform="translate(19619.5 589)">
                <path id="Path_188-7" data-name="Path 188" d="M706.5,1743H900.133v73.757" transform="translate(0)" fill="none" stroke="#7d7d7d" stroke-width="2"/>
                <path id="Path_190-5" data-name="Path 190" d="M706.5,1830.124H900.133V1743" transform="translate(0 166.884)" fill="none" stroke="#7d7d7d" stroke-width="2"/>
              </g>
              <g id="Group_286" data-name="Group 286" transform="translate(19438.5 521.829)">
                <path id="Path_188-8" data-name="Path 188" d="M706.5,1742v1h0v18.707" transform="translate(128.324)" fill="none" stroke="#7d7d7d" stroke-width="2"/>
                <path id="Path_190-6" data-name="Path 190" d="M706.5,1759.429H834.824V1743" transform="translate(0 50.742)" fill="none" stroke="#7d7d7d" stroke-width="2"/>
              </g>
              <g id="Group_287" data-name="Group 287" transform="translate(19438.5 589)">
                <path id="Path_188-9" data-name="Path 188" d="M706.5,1743H834.824v24.8" fill="none" stroke="#7d7d7d" stroke-width="2"/>
                <path id="Path_190-7" data-name="Path 190" d="M706.5,1767.8H834.824V1743" transform="translate(0 80.374)" fill="none" stroke="#7d7d7d" stroke-width="2"/>
              </g>
              <g id="Group_288" data-name="Group 288" transform="translate(19438.5 694.171)">
                <path id="Path_188-10" data-name="Path 188" d="M706.5,1743H834.824v43.576" fill="none" stroke="#7d7d7d" stroke-width="2"/>
                <path id="Path_190-8" data-name="Path 190" d="M706.5,1788.278H834.824V1743" transform="translate(0 103.56)" fill="none" stroke="#7d7d7d" stroke-width="2"/>
              </g>
              <g id="Group_289" data-name="Group 289" transform="translate(19438.5 843.008)">
                <path id="Path_188-11" data-name="Path 188" d="M706.5,1743H834.824v17.027" fill="none" stroke="#7d7d7d" stroke-width="2"/>
                <path id="Path_190-9" data-name="Path 190" d="M706.5,1753.563H834.824V1743" transform="translate(0 39.428)" fill="none" stroke="#7d7d7d" stroke-width="2"/>
              </g>
            </g>
          </g>
        </g>
      </g>
    </g>
    <path id="Path_277" data-name="Path 277" d="M466.34,8043.82h676.735" transform="translate(0 -10)" fill="none" stroke="#000" stroke-width="2.5"/>
  </g>
</svg>
